<svg width="32" height="32" viewBox="0 0 32 32" fill="none" xmlns="http://www.w3.org/2000/svg">
<path d="M9.47427 31.9954C8.88809 30.0549 7.8791 29.1013 6.33883 29.0667C5.93498 29.0576 5.50825 29.1235 5.12726 29.2555C4.74563 29.3881 4.36791 29.5997 4.06273 29.8622C3.75755 30.1248 3.50008 30.4697 3.30273 30.8237C3.10603 31.1757 3.00996 31.5833 2.85901 31.9947C2.01274 31.9947 1.13119 31.9947 0.249632 31.9947C0.175135 31.9947 0.100637 31.9882 0.00653487 31.9836V29.0582C0.925992 28.9263 1.69253 28.5155 2.26041 27.7683C2.69433 27.1968 2.92044 26.5482 2.92501 25.8317C2.93024 24.9944 2.65185 24.2537 2.09574 23.6261C1.54092 22.9997 0.832543 22.6509 0 22.5379V19.265C0.976964 19.1174 1.78141 18.6713 2.34994 17.8464C2.75706 17.2553 2.94462 16.597 2.92763 15.8811C2.88972 14.3351 1.96112 13.3274 0.00457441 12.718V9.48754C1.82715 9.09435 2.95376 8.00883 2.90214 6.09382C2.85313 4.29181 1.74154 3.27291 0 2.92087V0.0248464H2.92566C3.05767 0.943815 3.46937 1.70995 4.21696 2.27753C4.78876 2.71121 5.43833 2.9372 6.15455 2.94112C6.99232 2.94634 7.73337 2.6681 8.36138 2.11163C8.98807 1.55711 9.33703 0.849109 9.45009 0.0170087H12.6875C12.8018 0.363173 12.8855 0.712603 13.0292 1.03525C13.5886 2.28863 14.9753 3.09069 16.2745 2.93459C17.7997 2.75171 18.9498 1.70276 19.2047 0.255405C19.2315 0.10257 19.257 -0.00193233 19.4563 2.70927e-05C20.4685 0.00917105 21.4814 0.00459908 22.5042 0.00459908C22.9015 1.84384 23.9882 2.96985 25.9036 2.91826C27.7066 2.86927 28.726 1.75828 29.0776 0.0176619H31.9752V2.94112C31.055 3.0724 30.2885 3.48453 29.7213 4.23172C29.2874 4.80322 29.0613 5.45179 29.0573 6.16828C29.0521 7.00561 29.3311 7.74627 29.8873 8.37394C30.4421 9.0003 31.1505 9.34907 31.983 9.46141V12.7284C31.7719 12.7761 31.5582 12.8101 31.353 12.8734C29.9395 13.3104 28.9724 14.7081 29.0554 16.1848C29.1397 17.6812 30.265 18.9509 31.7445 19.2108C31.8974 19.2376 32.0013 19.2631 32 19.4623C31.9908 20.474 31.9954 21.4864 31.9954 22.5085C30.1552 22.9063 29.0286 23.9918 29.0802 25.9068C29.1292 27.7088 30.2408 28.7277 31.9823 29.0791V31.9752H29.0573C28.9253 31.0555 28.5136 30.2894 27.766 29.7225C27.1942 29.2888 26.5453 29.0628 25.8284 29.0589C24.9907 29.0537 24.2496 29.3319 23.6216 29.8884C22.9956 30.4429 22.646 31.1509 22.5329 31.983H19.2955C19.1812 31.6368 19.0975 31.2874 18.9538 30.9647C18.3944 29.712 17.0096 28.9106 15.7092 29.0654C14.1859 29.247 13.0325 30.2985 12.779 31.7446C12.7522 31.8974 12.7273 32.0019 12.5274 32C11.5151 31.9908 10.5022 31.9954 9.47623 31.9954H9.47427Z" fill="#90C9F6"/>
</svg>
